<?xml version="1.0" encoding="UTF-8" standalone="no"?>
<!DOCTYPE svg PUBLIC "-//W3C//DTD SVG 20010904//EN"
              "http://www.w3.org/TR/2001/REC-SVG-20010904/DTD/svg10.dtd">

<svg xmlns="http://www.w3.org/2000/svg"
     width="0.533333in" height="0.533333in"
     viewBox="0 0 48 48">
  <path id="Selection"
        fill="none" stroke="black" stroke-width="1"
        d="M 31.98,12.21
           C 39.63,16.78 40.15,28.60 33.89,33.44
             26.47,39.19 14.86,37.62 6.00,38.00
             6.00,38.00 8.45,31.91 8.45,31.91
             8.45,31.91 8.45,15.00 8.45,15.00
             8.45,15.00 6.00,9.00 6.00,9.00
             14.60,9.00 24.33,7.64 31.98,12.21 Z
           M 26.66,32.26
           C 31.22,28.72 31.22,18.28 26.66,14.74
             24.18,12.81 20.96,13.03 18.00,13.00
             16.39,21.98 16.83,25.15 18.00,34.00
             20.96,33.97 24.18,34.19 26.66,32.26 Z
           M 32.00,31.00
           C 32.00,31.00 33.00,32.00 33.00,32.00
             33.00,32.00 33.00,31.00 33.00,31.00
             33.00,31.00 32.00,31.00 32.00,31.00 Z" />
</svg>
